<mxfile host="app.diagrams.net" agent="Mozilla/5.0 (Windows NT 10.0; Win64; x64) AppleWebKit/537.36 (KHTML, like Gecko) Chrome/131.0.0.0 Safari/537.36" version="25.0.3">
  <diagram name="PÃ¡gina-1" id="8rCrJeVn23FF3yLIRyjK">
    <mxGraphModel dx="993" dy="515" grid="1" gridSize="10" guides="1" tooltips="1" connect="1" arrows="1" fold="1" page="1" pageScale="1" pageWidth="827" pageHeight="1169" math="0" shadow="0">
      <root>
        <mxCell id="0" />
        <mxCell id="1" parent="0" />
        <mxCell id="WuAA4G21K0mSxjfqlwLk-1" value="PROFESORES" style="rounded=0;whiteSpace=wrap;html=1;fillColor=#0050ef;fontColor=#ffffff;strokeColor=#001DBC;" vertex="1" parent="1">
          <mxGeometry x="160" y="270" width="120" height="40" as="geometry" />
        </mxCell>
        <mxCell id="WuAA4G21K0mSxjfqlwLk-2" value="CURSOS" style="rounded=0;whiteSpace=wrap;html=1;fillColor=#a20025;fontColor=#ffffff;strokeColor=#6F0000;" vertex="1" parent="1">
          <mxGeometry x="560" y="270" width="120" height="40" as="geometry" />
        </mxCell>
        <mxCell id="WuAA4G21K0mSxjfqlwLk-3" value="ESTUDIANTES" style="rounded=0;whiteSpace=wrap;html=1;fillColor=#647687;fontColor=#ffffff;strokeColor=#314354;" vertex="1" parent="1">
          <mxGeometry x="560" y="510" width="120" height="40" as="geometry" />
        </mxCell>
        <mxCell id="WuAA4G21K0mSxjfqlwLk-4" value="&lt;font style=&quot;font-size: 10px;&quot;&gt;imparten&lt;/font&gt;" style="rhombus;whiteSpace=wrap;html=1;fillColor=#008a00;fontColor=#ffffff;strokeColor=#005700;" vertex="1" parent="1">
          <mxGeometry x="380" y="275" width="60" height="30" as="geometry" />
        </mxCell>
        <mxCell id="WuAA4G21K0mSxjfqlwLk-6" value="" style="endArrow=none;html=1;rounded=0;entryX=0;entryY=0.5;entryDx=0;entryDy=0;" edge="1" parent="1" source="WuAA4G21K0mSxjfqlwLk-1" target="WuAA4G21K0mSxjfqlwLk-4">
          <mxGeometry width="50" height="50" relative="1" as="geometry">
            <mxPoint x="540" y="320" as="sourcePoint" />
            <mxPoint x="590" y="270" as="targetPoint" />
          </mxGeometry>
        </mxCell>
        <mxCell id="WuAA4G21K0mSxjfqlwLk-7" value="" style="endArrow=none;html=1;rounded=0;entryX=0;entryY=0.5;entryDx=0;entryDy=0;exitX=1;exitY=0.5;exitDx=0;exitDy=0;" edge="1" parent="1" target="WuAA4G21K0mSxjfqlwLk-2" source="WuAA4G21K0mSxjfqlwLk-4">
          <mxGeometry width="50" height="50" relative="1" as="geometry">
            <mxPoint x="570" y="170" as="sourcePoint" />
            <mxPoint x="666" y="169.66" as="targetPoint" />
          </mxGeometry>
        </mxCell>
        <mxCell id="WuAA4G21K0mSxjfqlwLk-8" value="" style="endArrow=none;html=1;rounded=0;exitX=0.5;exitY=0;exitDx=0;exitDy=0;entryX=0.5;entryY=1;entryDx=0;entryDy=0;" edge="1" parent="1" source="WuAA4G21K0mSxjfqlwLk-30" target="WuAA4G21K0mSxjfqlwLk-2">
          <mxGeometry width="50" height="50" relative="1" as="geometry">
            <mxPoint x="715" y="290" as="sourcePoint" />
            <mxPoint x="640" y="290" as="targetPoint" />
          </mxGeometry>
        </mxCell>
        <mxCell id="WuAA4G21K0mSxjfqlwLk-9" value="" style="endArrow=none;html=1;rounded=0;entryX=0.5;entryY=1;entryDx=0;entryDy=0;" edge="1" parent="1">
          <mxGeometry width="50" height="50" relative="1" as="geometry">
            <mxPoint x="620" y="510" as="sourcePoint" />
            <mxPoint x="619.5699999999999" y="420" as="targetPoint" />
          </mxGeometry>
        </mxCell>
        <mxCell id="WuAA4G21K0mSxjfqlwLk-12" value="&lt;h1 style=&quot;margin-top: 0px;&quot;&gt;&lt;font face=&quot;Comic Sans MS&quot; size=&quot;1&quot;&gt;(id_profesor, nombre_profesor)&lt;/font&gt;&lt;/h1&gt;" style="text;html=1;whiteSpace=wrap;overflow=hidden;rounded=0;align=center;" vertex="1" parent="1">
          <mxGeometry x="175" y="180" width="90" height="80" as="geometry" />
        </mxCell>
        <mxCell id="WuAA4G21K0mSxjfqlwLk-13" value="1:N" style="text;html=1;align=center;verticalAlign=middle;whiteSpace=wrap;rounded=0;" vertex="1" parent="1">
          <mxGeometry x="280" y="290" width="60" height="30" as="geometry" />
        </mxCell>
        <mxCell id="WuAA4G21K0mSxjfqlwLk-17" value="CALIFICACIONES" style="rounded=0;whiteSpace=wrap;html=1;fillColor=#a0522d;fontColor=#ffffff;strokeColor=#6D1F00;" vertex="1" parent="1">
          <mxGeometry x="160" y="510" width="120" height="40" as="geometry" />
        </mxCell>
        <mxCell id="WuAA4G21K0mSxjfqlwLk-20" value="" style="endArrow=none;html=1;rounded=0;entryX=0.5;entryY=1;entryDx=0;entryDy=0;" edge="1" parent="1" target="WuAA4G21K0mSxjfqlwLk-1">
          <mxGeometry width="50" height="50" relative="1" as="geometry">
            <mxPoint x="220" y="390" as="sourcePoint" />
            <mxPoint x="539" y="250" as="targetPoint" />
            <Array as="points" />
          </mxGeometry>
        </mxCell>
        <mxCell id="WuAA4G21K0mSxjfqlwLk-23" value="N:M" style="text;html=1;align=center;verticalAlign=middle;whiteSpace=wrap;rounded=0;" vertex="1" parent="1">
          <mxGeometry x="620" y="480" width="60" height="30" as="geometry" />
        </mxCell>
        <mxCell id="WuAA4G21K0mSxjfqlwLk-24" value="N:M" style="text;html=1;align=center;verticalAlign=middle;whiteSpace=wrap;rounded=0;" vertex="1" parent="1">
          <mxGeometry x="560" y="310" width="60" height="30" as="geometry" />
        </mxCell>
        <mxCell id="WuAA4G21K0mSxjfqlwLk-27" value="&lt;font style=&quot;font-size: 10px;&quot;&gt;ponen&lt;/font&gt;" style="rhombus;whiteSpace=wrap;html=1;fillColor=#008a00;fontColor=#ffffff;strokeColor=#005700;" vertex="1" parent="1">
          <mxGeometry x="190" y="390" width="60" height="30" as="geometry" />
        </mxCell>
        <mxCell id="WuAA4G21K0mSxjfqlwLk-28" value="" style="endArrow=none;html=1;rounded=0;entryX=0.5;entryY=1;entryDx=0;entryDy=0;exitX=0.5;exitY=0;exitDx=0;exitDy=0;" edge="1" parent="1" source="WuAA4G21K0mSxjfqlwLk-17">
          <mxGeometry width="50" height="50" relative="1" as="geometry">
            <mxPoint x="219.57" y="500" as="sourcePoint" />
            <mxPoint x="219.57" y="420" as="targetPoint" />
            <Array as="points" />
          </mxGeometry>
        </mxCell>
        <mxCell id="WuAA4G21K0mSxjfqlwLk-30" value="&lt;font style=&quot;font-size: 10px;&quot;&gt;hay&lt;/font&gt;" style="rhombus;whiteSpace=wrap;html=1;fillColor=#008a00;fontColor=#ffffff;strokeColor=#005700;" vertex="1" parent="1">
          <mxGeometry x="590" y="390" width="60" height="30" as="geometry" />
        </mxCell>
        <mxCell id="WuAA4G21K0mSxjfqlwLk-31" value="&lt;font style=&quot;font-size: 10px;&quot;&gt;obtienen&lt;/font&gt;" style="rhombus;whiteSpace=wrap;html=1;fillColor=#008a00;fontColor=#ffffff;strokeColor=#005700;" vertex="1" parent="1">
          <mxGeometry x="380" y="515" width="60" height="30" as="geometry" />
        </mxCell>
        <mxCell id="WuAA4G21K0mSxjfqlwLk-32" value="" style="endArrow=none;html=1;rounded=0;entryX=0;entryY=0.5;entryDx=0;entryDy=0;" edge="1" parent="1" target="WuAA4G21K0mSxjfqlwLk-31">
          <mxGeometry width="50" height="50" relative="1" as="geometry">
            <mxPoint x="280" y="530" as="sourcePoint" />
            <mxPoint x="590" y="510" as="targetPoint" />
          </mxGeometry>
        </mxCell>
        <mxCell id="WuAA4G21K0mSxjfqlwLk-33" value="" style="endArrow=none;html=1;rounded=0;entryX=0;entryY=0.5;entryDx=0;entryDy=0;exitX=1;exitY=0.5;exitDx=0;exitDy=0;" edge="1" parent="1" source="WuAA4G21K0mSxjfqlwLk-31">
          <mxGeometry width="50" height="50" relative="1" as="geometry">
            <mxPoint x="570" y="410" as="sourcePoint" />
            <mxPoint x="560" y="530" as="targetPoint" />
          </mxGeometry>
        </mxCell>
        <mxCell id="WuAA4G21K0mSxjfqlwLk-34" value="N:M" style="text;html=1;align=center;verticalAlign=middle;whiteSpace=wrap;rounded=0;" vertex="1" parent="1">
          <mxGeometry x="500" y="500" width="60" height="30" as="geometry" />
        </mxCell>
        <mxCell id="WuAA4G21K0mSxjfqlwLk-35" value="N:M" style="text;html=1;align=center;verticalAlign=middle;whiteSpace=wrap;rounded=0;" vertex="1" parent="1">
          <mxGeometry x="500" y="260" width="60" height="30" as="geometry" />
        </mxCell>
        <mxCell id="WuAA4G21K0mSxjfqlwLk-36" value="N:M" style="text;html=1;align=center;verticalAlign=middle;whiteSpace=wrap;rounded=0;" vertex="1" parent="1">
          <mxGeometry x="220" y="480" width="60" height="30" as="geometry" />
        </mxCell>
        <mxCell id="WuAA4G21K0mSxjfqlwLk-37" value="N:M" style="text;html=1;align=center;verticalAlign=middle;whiteSpace=wrap;rounded=0;" vertex="1" parent="1">
          <mxGeometry x="160" y="310" width="60" height="30" as="geometry" />
        </mxCell>
        <mxCell id="WuAA4G21K0mSxjfqlwLk-38" value="N:M" style="text;html=1;align=center;verticalAlign=middle;whiteSpace=wrap;rounded=0;" vertex="1" parent="1">
          <mxGeometry x="280" y="530" width="60" height="30" as="geometry" />
        </mxCell>
        <mxCell id="WuAA4G21K0mSxjfqlwLk-39" value="&lt;h1 style=&quot;margin-top: 0px;&quot;&gt;&lt;font face=&quot;Comic Sans MS&quot; size=&quot;1&quot;&gt;(id_curso, nombre_curso)&lt;/font&gt;&lt;/h1&gt;" style="text;html=1;whiteSpace=wrap;overflow=hidden;rounded=0;align=center;" vertex="1" parent="1">
          <mxGeometry x="575" y="180" width="90" height="80" as="geometry" />
        </mxCell>
        <mxCell id="WuAA4G21K0mSxjfqlwLk-40" value="&lt;h1 style=&quot;margin-top: 0px;&quot;&gt;&lt;font face=&quot;Comic Sans MS&quot; size=&quot;1&quot;&gt;(id_estudiante, nombre_estudiante)&lt;/font&gt;&lt;/h1&gt;" style="text;html=1;whiteSpace=wrap;overflow=hidden;rounded=0;align=center;" vertex="1" parent="1">
          <mxGeometry x="567.5" y="570" width="105" height="80" as="geometry" />
        </mxCell>
        <mxCell id="WuAA4G21K0mSxjfqlwLk-41" value="&lt;h1 style=&quot;margin-top: 0px;&quot;&gt;&lt;font face=&quot;Comic Sans MS&quot; size=&quot;1&quot;&gt;(id_calificacion, nota)&lt;/font&gt;&lt;/h1&gt;" style="text;html=1;whiteSpace=wrap;overflow=hidden;rounded=0;align=center;" vertex="1" parent="1">
          <mxGeometry x="167.5" y="560" width="105" height="80" as="geometry" />
        </mxCell>
        <mxCell id="WuAA4G21K0mSxjfqlwLk-42" value="&lt;h1 style=&quot;margin-top: 0px;&quot;&gt;Esquema Modelo Entidad-RelaciÃ³n&lt;/h1&gt;" style="text;html=1;whiteSpace=wrap;overflow=hidden;rounded=0;" vertex="1" parent="1">
          <mxGeometry x="220" y="120" width="410" height="50" as="geometry" />
        </mxCell>
      </root>
    </mxGraphModel>
  </diagram>
</mxfile>
